<mxfile host="app.diagrams.net" agent="Mozilla/5.0 (Windows NT 10.0; Win64; x64) AppleWebKit/537.36 (KHTML, like Gecko) Chrome/135.0.0.0 Safari/537.36 Edg/135.0.0.0" version="26.2.14">
  <diagram id="C5RBs43oDa-KdzZeNtuy" name="Page-1">
    <mxGraphModel dx="1554" dy="2050" grid="0" gridSize="10" guides="1" tooltips="1" connect="1" arrows="1" fold="1" page="1" pageScale="1" pageWidth="827" pageHeight="1169" math="0" shadow="0">
      <root>
        <mxCell id="WIyWlLk6GJQsqaUBKTNV-0" />
        <mxCell id="WIyWlLk6GJQsqaUBKTNV-1" parent="WIyWlLk6GJQsqaUBKTNV-0" />
        <mxCell id="D4eZ-Hi1aHxsngLYi5m4-0" value="User" style="swimlane;fontStyle=1;align=center;verticalAlign=top;childLayout=stackLayout;horizontal=1;startSize=32;horizontalStack=0;resizeParent=1;resizeParentMax=0;resizeLast=0;collapsible=0;marginBottom=0;labelBackgroundColor=none;fillColor=#F5AB50;strokeColor=#909090;fontColor=#1A1A1A;rounded=0;fontSize=20;" parent="WIyWlLk6GJQsqaUBKTNV-1" vertex="1">
          <mxGeometry x="737" y="-351" width="173" height="264" as="geometry" />
        </mxCell>
        <mxCell id="D4eZ-Hi1aHxsngLYi5m4-1" value="+int userId" style="text;strokeColor=none;fillColor=none;align=left;verticalAlign=top;spacingLeft=4;spacingRight=4;overflow=hidden;rotatable=0;points=[[0,0.5],[1,0.5]];portConstraint=eastwest;labelBackgroundColor=none;fontColor=#1A1A1A;rounded=0;fontSize=20;" parent="D4eZ-Hi1aHxsngLYi5m4-0" vertex="1">
          <mxGeometry y="32" width="173" height="32" as="geometry" />
        </mxCell>
        <mxCell id="D4eZ-Hi1aHxsngLYi5m4-2" value="+String name" style="text;strokeColor=none;fillColor=none;align=left;verticalAlign=top;spacingLeft=4;spacingRight=4;overflow=hidden;rotatable=0;points=[[0,0.5],[1,0.5]];portConstraint=eastwest;labelBackgroundColor=none;fontColor=#1A1A1A;rounded=0;fontSize=20;" parent="D4eZ-Hi1aHxsngLYi5m4-0" vertex="1">
          <mxGeometry y="64" width="173" height="32" as="geometry" />
        </mxCell>
        <mxCell id="D4eZ-Hi1aHxsngLYi5m4-3" value="+String email" style="text;strokeColor=none;fillColor=none;align=left;verticalAlign=top;spacingLeft=4;spacingRight=4;overflow=hidden;rotatable=0;points=[[0,0.5],[1,0.5]];portConstraint=eastwest;labelBackgroundColor=none;fontColor=#1A1A1A;rounded=0;fontSize=20;" parent="D4eZ-Hi1aHxsngLYi5m4-0" vertex="1">
          <mxGeometry y="96" width="173" height="32" as="geometry" />
        </mxCell>
        <mxCell id="D4eZ-Hi1aHxsngLYi5m4-4" value="+String password" style="text;strokeColor=none;fillColor=none;align=left;verticalAlign=top;spacingLeft=4;spacingRight=4;overflow=hidden;rotatable=0;points=[[0,0.5],[1,0.5]];portConstraint=eastwest;labelBackgroundColor=none;fontColor=#1A1A1A;rounded=0;fontSize=20;" parent="D4eZ-Hi1aHxsngLYi5m4-0" vertex="1">
          <mxGeometry y="128" width="173" height="32" as="geometry" />
        </mxCell>
        <mxCell id="D4eZ-Hi1aHxsngLYi5m4-5" style="line;strokeWidth=1;fillColor=none;align=left;verticalAlign=middle;spacingTop=-1;spacingLeft=3;spacingRight=3;rotatable=0;labelPosition=right;points=[];portConstraint=eastwest;labelBackgroundColor=none;strokeColor=#909090;fontColor=#1A1A1A;rounded=0;fontSize=20;" parent="D4eZ-Hi1aHxsngLYi5m4-0" vertex="1">
          <mxGeometry y="160" width="173" height="8" as="geometry" />
        </mxCell>
        <mxCell id="D4eZ-Hi1aHxsngLYi5m4-6" value="+login()" style="text;strokeColor=none;fillColor=none;align=left;verticalAlign=top;spacingLeft=4;spacingRight=4;overflow=hidden;rotatable=0;points=[[0,0.5],[1,0.5]];portConstraint=eastwest;labelBackgroundColor=none;fontColor=#1A1A1A;rounded=0;fontSize=20;" parent="D4eZ-Hi1aHxsngLYi5m4-0" vertex="1">
          <mxGeometry y="168" width="173" height="32" as="geometry" />
        </mxCell>
        <mxCell id="D4eZ-Hi1aHxsngLYi5m4-7" value="+logout()" style="text;strokeColor=none;fillColor=none;align=left;verticalAlign=top;spacingLeft=4;spacingRight=4;overflow=hidden;rotatable=0;points=[[0,0.5],[1,0.5]];portConstraint=eastwest;labelBackgroundColor=none;fontColor=#1A1A1A;rounded=0;fontSize=20;" parent="D4eZ-Hi1aHxsngLYi5m4-0" vertex="1">
          <mxGeometry y="200" width="173" height="32" as="geometry" />
        </mxCell>
        <mxCell id="D4eZ-Hi1aHxsngLYi5m4-8" value="+updateProfile()" style="text;strokeColor=none;fillColor=none;align=left;verticalAlign=top;spacingLeft=4;spacingRight=4;overflow=hidden;rotatable=0;points=[[0,0.5],[1,0.5]];portConstraint=eastwest;labelBackgroundColor=none;fontColor=#1A1A1A;rounded=0;fontSize=20;" parent="D4eZ-Hi1aHxsngLYi5m4-0" vertex="1">
          <mxGeometry y="232" width="173" height="32" as="geometry" />
        </mxCell>
        <mxCell id="D4eZ-Hi1aHxsngLYi5m4-9" value="Admin" style="swimlane;fontStyle=1;align=center;verticalAlign=top;childLayout=stackLayout;horizontal=1;startSize=40.57142857142857;horizontalStack=0;resizeParent=1;resizeParentMax=0;resizeLast=0;collapsible=0;marginBottom=0;labelBackgroundColor=none;fillColor=#F5AB50;strokeColor=#909090;fontColor=#1A1A1A;rounded=0;fontSize=20;" parent="WIyWlLk6GJQsqaUBKTNV-1" vertex="1">
          <mxGeometry x="1189" y="69.00000000000003" width="186" height="130.57142857142856" as="geometry" />
        </mxCell>
        <mxCell id="D4eZ-Hi1aHxsngLYi5m4-10" style="line;strokeWidth=1;fillColor=none;align=left;verticalAlign=middle;spacingTop=-1;spacingLeft=3;spacingRight=3;rotatable=0;labelPosition=right;points=[];portConstraint=eastwest;labelBackgroundColor=none;strokeColor=#909090;fontColor=#1A1A1A;rounded=0;fontSize=20;" parent="D4eZ-Hi1aHxsngLYi5m4-9" vertex="1">
          <mxGeometry y="40.57142857142857" width="186" height="8" as="geometry" />
        </mxCell>
        <mxCell id="D4eZ-Hi1aHxsngLYi5m4-11" value="+manageUsers()" style="text;strokeColor=none;fillColor=none;align=left;verticalAlign=top;spacingLeft=4;spacingRight=4;overflow=hidden;rotatable=0;points=[[0,0.5],[1,0.5]];portConstraint=eastwest;labelBackgroundColor=none;fontColor=#1A1A1A;rounded=0;fontSize=20;" parent="D4eZ-Hi1aHxsngLYi5m4-9" vertex="1">
          <mxGeometry y="48.57142857142857" width="186" height="41" as="geometry" />
        </mxCell>
        <mxCell id="D4eZ-Hi1aHxsngLYi5m4-12" value="+generateReports()" style="text;strokeColor=none;fillColor=none;align=left;verticalAlign=top;spacingLeft=4;spacingRight=4;overflow=hidden;rotatable=0;points=[[0,0.5],[1,0.5]];portConstraint=eastwest;labelBackgroundColor=none;fontColor=#1A1A1A;rounded=0;fontSize=20;" parent="D4eZ-Hi1aHxsngLYi5m4-9" vertex="1">
          <mxGeometry y="89.57142857142857" width="186" height="41" as="geometry" />
        </mxCell>
        <mxCell id="D4eZ-Hi1aHxsngLYi5m4-13" value="Staff" style="swimlane;fontStyle=1;align=center;verticalAlign=top;childLayout=stackLayout;horizontal=1;startSize=45.333333333333336;horizontalStack=0;resizeParent=1;resizeParentMax=0;resizeLast=0;collapsible=0;marginBottom=0;labelBackgroundColor=none;fillColor=#F5AB50;strokeColor=#909090;fontColor=#1A1A1A;rounded=0;fontSize=20;" parent="WIyWlLk6GJQsqaUBKTNV-1" vertex="1">
          <mxGeometry x="894" y="67.28" width="211" height="143.33333333333334" as="geometry" />
        </mxCell>
        <mxCell id="D4eZ-Hi1aHxsngLYi5m4-14" value="+String role" style="text;strokeColor=none;fillColor=none;align=left;verticalAlign=top;spacingLeft=4;spacingRight=4;overflow=hidden;rotatable=0;points=[[0,0.5],[1,0.5]];portConstraint=eastwest;labelBackgroundColor=none;fontColor=#1A1A1A;rounded=0;fontSize=20;" parent="D4eZ-Hi1aHxsngLYi5m4-13" vertex="1">
          <mxGeometry y="45.333333333333336" width="211" height="45" as="geometry" />
        </mxCell>
        <mxCell id="D4eZ-Hi1aHxsngLYi5m4-15" style="line;strokeWidth=1;fillColor=none;align=left;verticalAlign=middle;spacingTop=-1;spacingLeft=3;spacingRight=3;rotatable=0;labelPosition=right;points=[];portConstraint=eastwest;labelBackgroundColor=none;strokeColor=#909090;fontColor=#1A1A1A;rounded=0;fontSize=20;" parent="D4eZ-Hi1aHxsngLYi5m4-13" vertex="1">
          <mxGeometry y="90.33333333333334" width="211" height="8" as="geometry" />
        </mxCell>
        <mxCell id="D4eZ-Hi1aHxsngLYi5m4-16" value="+updateOrderStatus()" style="text;strokeColor=none;fillColor=none;align=left;verticalAlign=top;spacingLeft=4;spacingRight=4;overflow=hidden;rotatable=0;points=[[0,0.5],[1,0.5]];portConstraint=eastwest;labelBackgroundColor=none;fontColor=#1A1A1A;rounded=0;fontSize=20;" parent="D4eZ-Hi1aHxsngLYi5m4-13" vertex="1">
          <mxGeometry y="98.33333333333334" width="211" height="45" as="geometry" />
        </mxCell>
        <mxCell id="D4eZ-Hi1aHxsngLYi5m4-17" value="Customer" style="swimlane;fontStyle=1;align=center;verticalAlign=top;childLayout=stackLayout;horizontal=1;startSize=36.888888888888886;horizontalStack=0;resizeParent=1;resizeParentMax=0;resizeLast=0;collapsible=0;marginBottom=0;labelBackgroundColor=none;fillColor=#F5AB50;strokeColor=#909090;fontColor=#1A1A1A;rounded=0;fontSize=20;" parent="WIyWlLk6GJQsqaUBKTNV-1" vertex="1">
          <mxGeometry x="274.5" y="61" width="177" height="155.88888888888889" as="geometry" />
        </mxCell>
        <mxCell id="D4eZ-Hi1aHxsngLYi5m4-18" style="line;strokeWidth=1;fillColor=none;align=left;verticalAlign=middle;spacingTop=-1;spacingLeft=3;spacingRight=3;rotatable=0;labelPosition=right;points=[];portConstraint=eastwest;labelBackgroundColor=none;strokeColor=#909090;fontColor=#1A1A1A;rounded=0;fontSize=20;" parent="D4eZ-Hi1aHxsngLYi5m4-17" vertex="1">
          <mxGeometry y="36.888888888888886" width="177" height="8" as="geometry" />
        </mxCell>
        <mxCell id="D4eZ-Hi1aHxsngLYi5m4-19" value="+placeOrder()" style="text;strokeColor=none;fillColor=none;align=left;verticalAlign=top;spacingLeft=4;spacingRight=4;overflow=hidden;rotatable=0;points=[[0,0.5],[1,0.5]];portConstraint=eastwest;labelBackgroundColor=none;fontColor=#1A1A1A;rounded=0;fontSize=20;" parent="D4eZ-Hi1aHxsngLYi5m4-17" vertex="1">
          <mxGeometry y="44.888888888888886" width="177" height="37" as="geometry" />
        </mxCell>
        <mxCell id="D4eZ-Hi1aHxsngLYi5m4-20" value="+giveFeedback()" style="text;strokeColor=none;fillColor=none;align=left;verticalAlign=top;spacingLeft=4;spacingRight=4;overflow=hidden;rotatable=0;points=[[0,0.5],[1,0.5]];portConstraint=eastwest;labelBackgroundColor=none;fontColor=#1A1A1A;rounded=0;fontSize=20;" parent="D4eZ-Hi1aHxsngLYi5m4-17" vertex="1">
          <mxGeometry y="81.88888888888889" width="177" height="37" as="geometry" />
        </mxCell>
        <mxCell id="D4eZ-Hi1aHxsngLYi5m4-21" value="+reserveTable()" style="text;strokeColor=none;fillColor=none;align=left;verticalAlign=top;spacingLeft=4;spacingRight=4;overflow=hidden;rotatable=0;points=[[0,0.5],[1,0.5]];portConstraint=eastwest;labelBackgroundColor=none;fontColor=#1A1A1A;rounded=0;fontSize=20;" parent="D4eZ-Hi1aHxsngLYi5m4-17" vertex="1">
          <mxGeometry y="118.88888888888889" width="177" height="37" as="geometry" />
        </mxCell>
        <mxCell id="D4eZ-Hi1aHxsngLYi5m4-22" value="Menu" style="swimlane;fontStyle=1;align=center;verticalAlign=top;childLayout=stackLayout;horizontal=1;startSize=36.8;horizontalStack=0;resizeParent=1;resizeParentMax=0;resizeLast=0;collapsible=0;marginBottom=0;labelBackgroundColor=none;fillColor=#F5AB50;strokeColor=#909090;fontColor=#1A1A1A;rounded=0;fontSize=20;" parent="WIyWlLk6GJQsqaUBKTNV-1" vertex="1">
          <mxGeometry x="105" y="1006.34" width="183" height="192.8" as="geometry" />
        </mxCell>
        <mxCell id="D4eZ-Hi1aHxsngLYi5m4-23" value="+int menuId" style="text;strokeColor=none;fillColor=none;align=left;verticalAlign=top;spacingLeft=4;spacingRight=4;overflow=hidden;rotatable=0;points=[[0,0.5],[1,0.5]];portConstraint=eastwest;labelBackgroundColor=none;fontColor=#1A1A1A;rounded=0;fontSize=20;" parent="D4eZ-Hi1aHxsngLYi5m4-22" vertex="1">
          <mxGeometry y="36.8" width="183" height="37" as="geometry" />
        </mxCell>
        <mxCell id="D4eZ-Hi1aHxsngLYi5m4-24" value="+String name" style="text;strokeColor=none;fillColor=none;align=left;verticalAlign=top;spacingLeft=4;spacingRight=4;overflow=hidden;rotatable=0;points=[[0,0.5],[1,0.5]];portConstraint=eastwest;labelBackgroundColor=none;fontColor=#1A1A1A;rounded=0;fontSize=20;" parent="D4eZ-Hi1aHxsngLYi5m4-22" vertex="1">
          <mxGeometry y="73.8" width="183" height="37" as="geometry" />
        </mxCell>
        <mxCell id="D4eZ-Hi1aHxsngLYi5m4-25" style="line;strokeWidth=1;fillColor=none;align=left;verticalAlign=middle;spacingTop=-1;spacingLeft=3;spacingRight=3;rotatable=0;labelPosition=right;points=[];portConstraint=eastwest;labelBackgroundColor=none;strokeColor=#909090;fontColor=#1A1A1A;rounded=0;fontSize=20;" parent="D4eZ-Hi1aHxsngLYi5m4-22" vertex="1">
          <mxGeometry y="110.8" width="183" height="8" as="geometry" />
        </mxCell>
        <mxCell id="D4eZ-Hi1aHxsngLYi5m4-26" value="+addItem(Item)" style="text;strokeColor=none;fillColor=none;align=left;verticalAlign=top;spacingLeft=4;spacingRight=4;overflow=hidden;rotatable=0;points=[[0,0.5],[1,0.5]];portConstraint=eastwest;labelBackgroundColor=none;fontColor=#1A1A1A;rounded=0;fontSize=20;" parent="D4eZ-Hi1aHxsngLYi5m4-22" vertex="1">
          <mxGeometry y="118.8" width="183" height="37" as="geometry" />
        </mxCell>
        <mxCell id="D4eZ-Hi1aHxsngLYi5m4-27" value="+removeItem(Item)" style="text;strokeColor=none;fillColor=none;align=left;verticalAlign=top;spacingLeft=4;spacingRight=4;overflow=hidden;rotatable=0;points=[[0,0.5],[1,0.5]];portConstraint=eastwest;labelBackgroundColor=none;fontColor=#1A1A1A;rounded=0;fontSize=20;" parent="D4eZ-Hi1aHxsngLYi5m4-22" vertex="1">
          <mxGeometry y="155.8" width="183" height="37" as="geometry" />
        </mxCell>
        <mxCell id="D4eZ-Hi1aHxsngLYi5m4-28" value="Item" style="swimlane;fontStyle=1;align=center;verticalAlign=top;childLayout=stackLayout;horizontal=1;startSize=33.142857142857146;horizontalStack=0;resizeParent=1;resizeParentMax=0;resizeLast=0;collapsible=0;marginBottom=0;labelBackgroundColor=none;fillColor=#F5AB50;strokeColor=#909090;fontColor=#1A1A1A;rounded=0;fontSize=20;" parent="WIyWlLk6GJQsqaUBKTNV-1" vertex="1">
          <mxGeometry x="1274" y="993" width="173" height="239.14285714285714" as="geometry" />
        </mxCell>
        <mxCell id="D4eZ-Hi1aHxsngLYi5m4-29" value="+int itemId" style="text;strokeColor=none;fillColor=none;align=left;verticalAlign=top;spacingLeft=4;spacingRight=4;overflow=hidden;rotatable=0;points=[[0,0.5],[1,0.5]];portConstraint=eastwest;labelBackgroundColor=none;fontColor=#1A1A1A;rounded=0;fontSize=20;" parent="D4eZ-Hi1aHxsngLYi5m4-28" vertex="1">
          <mxGeometry y="33.142857142857146" width="173" height="33" as="geometry" />
        </mxCell>
        <mxCell id="D4eZ-Hi1aHxsngLYi5m4-30" value="+String name" style="text;strokeColor=none;fillColor=none;align=left;verticalAlign=top;spacingLeft=4;spacingRight=4;overflow=hidden;rotatable=0;points=[[0,0.5],[1,0.5]];portConstraint=eastwest;labelBackgroundColor=none;fontColor=#1A1A1A;rounded=0;fontSize=20;" parent="D4eZ-Hi1aHxsngLYi5m4-28" vertex="1">
          <mxGeometry y="66.14285714285714" width="173" height="33" as="geometry" />
        </mxCell>
        <mxCell id="D4eZ-Hi1aHxsngLYi5m4-31" value="+String category" style="text;strokeColor=none;fillColor=none;align=left;verticalAlign=top;spacingLeft=4;spacingRight=4;overflow=hidden;rotatable=0;points=[[0,0.5],[1,0.5]];portConstraint=eastwest;labelBackgroundColor=none;fontColor=#1A1A1A;rounded=0;fontSize=20;" parent="D4eZ-Hi1aHxsngLYi5m4-28" vertex="1">
          <mxGeometry y="99.14285714285714" width="173" height="33" as="geometry" />
        </mxCell>
        <mxCell id="D4eZ-Hi1aHxsngLYi5m4-32" value="+float price" style="text;strokeColor=none;fillColor=none;align=left;verticalAlign=top;spacingLeft=4;spacingRight=4;overflow=hidden;rotatable=0;points=[[0,0.5],[1,0.5]];portConstraint=eastwest;labelBackgroundColor=none;fontColor=#1A1A1A;rounded=0;fontSize=20;" parent="D4eZ-Hi1aHxsngLYi5m4-28" vertex="1">
          <mxGeometry y="132.14285714285714" width="173" height="33" as="geometry" />
        </mxCell>
        <mxCell id="D4eZ-Hi1aHxsngLYi5m4-33" value="+int stockQuantity" style="text;strokeColor=none;fillColor=none;align=left;verticalAlign=top;spacingLeft=4;spacingRight=4;overflow=hidden;rotatable=0;points=[[0,0.5],[1,0.5]];portConstraint=eastwest;labelBackgroundColor=none;fontColor=#1A1A1A;rounded=0;fontSize=20;" parent="D4eZ-Hi1aHxsngLYi5m4-28" vertex="1">
          <mxGeometry y="165.14285714285714" width="173" height="33" as="geometry" />
        </mxCell>
        <mxCell id="D4eZ-Hi1aHxsngLYi5m4-34" style="line;strokeWidth=1;fillColor=none;align=left;verticalAlign=middle;spacingTop=-1;spacingLeft=3;spacingRight=3;rotatable=0;labelPosition=right;points=[];portConstraint=eastwest;labelBackgroundColor=none;strokeColor=#909090;fontColor=#1A1A1A;rounded=0;fontSize=20;" parent="D4eZ-Hi1aHxsngLYi5m4-28" vertex="1">
          <mxGeometry y="198.14285714285714" width="173" height="8" as="geometry" />
        </mxCell>
        <mxCell id="D4eZ-Hi1aHxsngLYi5m4-35" value="+updateStock()" style="text;strokeColor=none;fillColor=none;align=left;verticalAlign=top;spacingLeft=4;spacingRight=4;overflow=hidden;rotatable=0;points=[[0,0.5],[1,0.5]];portConstraint=eastwest;labelBackgroundColor=none;fontColor=#1A1A1A;rounded=0;fontSize=20;" parent="D4eZ-Hi1aHxsngLYi5m4-28" vertex="1">
          <mxGeometry y="206.14285714285714" width="173" height="33" as="geometry" />
        </mxCell>
        <mxCell id="D4eZ-Hi1aHxsngLYi5m4-36" value="Order" style="swimlane;fontStyle=1;align=center;verticalAlign=top;childLayout=stackLayout;horizontal=1;startSize=32;horizontalStack=0;resizeParent=1;resizeParentMax=0;resizeLast=0;collapsible=0;marginBottom=0;labelBackgroundColor=none;fillColor=#F5AB50;strokeColor=#909090;fontColor=#1A1A1A;rounded=0;fontSize=20;" parent="WIyWlLk6GJQsqaUBKTNV-1" vertex="1">
          <mxGeometry x="292" y="667" width="207" height="264" as="geometry" />
        </mxCell>
        <mxCell id="D4eZ-Hi1aHxsngLYi5m4-37" value="+int orderId" style="text;strokeColor=none;fillColor=none;align=left;verticalAlign=top;spacingLeft=4;spacingRight=4;overflow=hidden;rotatable=0;points=[[0,0.5],[1,0.5]];portConstraint=eastwest;labelBackgroundColor=none;fontColor=#1A1A1A;rounded=0;fontSize=20;" parent="D4eZ-Hi1aHxsngLYi5m4-36" vertex="1">
          <mxGeometry y="32" width="207" height="32" as="geometry" />
        </mxCell>
        <mxCell id="D4eZ-Hi1aHxsngLYi5m4-38" value="+DateTime orderTime" style="text;strokeColor=none;fillColor=none;align=left;verticalAlign=top;spacingLeft=4;spacingRight=4;overflow=hidden;rotatable=0;points=[[0,0.5],[1,0.5]];portConstraint=eastwest;labelBackgroundColor=none;fontColor=#1A1A1A;rounded=0;fontSize=20;" parent="D4eZ-Hi1aHxsngLYi5m4-36" vertex="1">
          <mxGeometry y="64" width="207" height="32" as="geometry" />
        </mxCell>
        <mxCell id="D4eZ-Hi1aHxsngLYi5m4-39" value="+String status" style="text;strokeColor=none;fillColor=none;align=left;verticalAlign=top;spacingLeft=4;spacingRight=4;overflow=hidden;rotatable=0;points=[[0,0.5],[1,0.5]];portConstraint=eastwest;labelBackgroundColor=none;fontColor=#1A1A1A;rounded=0;fontSize=20;" parent="D4eZ-Hi1aHxsngLYi5m4-36" vertex="1">
          <mxGeometry y="96" width="207" height="32" as="geometry" />
        </mxCell>
        <mxCell id="D4eZ-Hi1aHxsngLYi5m4-40" value="+float totalAmount" style="text;strokeColor=none;fillColor=none;align=left;verticalAlign=top;spacingLeft=4;spacingRight=4;overflow=hidden;rotatable=0;points=[[0,0.5],[1,0.5]];portConstraint=eastwest;labelBackgroundColor=none;fontColor=#1A1A1A;rounded=0;fontSize=20;" parent="D4eZ-Hi1aHxsngLYi5m4-36" vertex="1">
          <mxGeometry y="128" width="207" height="32" as="geometry" />
        </mxCell>
        <mxCell id="D4eZ-Hi1aHxsngLYi5m4-41" style="line;strokeWidth=1;fillColor=none;align=left;verticalAlign=middle;spacingTop=-1;spacingLeft=3;spacingRight=3;rotatable=0;labelPosition=right;points=[];portConstraint=eastwest;labelBackgroundColor=none;strokeColor=#909090;fontColor=#1A1A1A;rounded=0;fontSize=20;" parent="D4eZ-Hi1aHxsngLYi5m4-36" vertex="1">
          <mxGeometry y="160" width="207" height="8" as="geometry" />
        </mxCell>
        <mxCell id="D4eZ-Hi1aHxsngLYi5m4-42" value="+placeOrder()" style="text;strokeColor=none;fillColor=none;align=left;verticalAlign=top;spacingLeft=4;spacingRight=4;overflow=hidden;rotatable=0;points=[[0,0.5],[1,0.5]];portConstraint=eastwest;labelBackgroundColor=none;fontColor=#1A1A1A;rounded=0;fontSize=20;" parent="D4eZ-Hi1aHxsngLYi5m4-36" vertex="1">
          <mxGeometry y="168" width="207" height="32" as="geometry" />
        </mxCell>
        <mxCell id="D4eZ-Hi1aHxsngLYi5m4-43" value="+cancelOrder()" style="text;strokeColor=none;fillColor=none;align=left;verticalAlign=top;spacingLeft=4;spacingRight=4;overflow=hidden;rotatable=0;points=[[0,0.5],[1,0.5]];portConstraint=eastwest;labelBackgroundColor=none;fontColor=#1A1A1A;rounded=0;fontSize=20;" parent="D4eZ-Hi1aHxsngLYi5m4-36" vertex="1">
          <mxGeometry y="200" width="207" height="32" as="geometry" />
        </mxCell>
        <mxCell id="D4eZ-Hi1aHxsngLYi5m4-44" value="+trackOrder()" style="text;strokeColor=none;fillColor=none;align=left;verticalAlign=top;spacingLeft=4;spacingRight=4;overflow=hidden;rotatable=0;points=[[0,0.5],[1,0.5]];portConstraint=eastwest;labelBackgroundColor=none;fontColor=#1A1A1A;rounded=0;fontSize=20;" parent="D4eZ-Hi1aHxsngLYi5m4-36" vertex="1">
          <mxGeometry y="232" width="207" height="32" as="geometry" />
        </mxCell>
        <mxCell id="D4eZ-Hi1aHxsngLYi5m4-45" value="OrderItem" style="swimlane;fontStyle=1;align=center;verticalAlign=top;childLayout=stackLayout;horizontal=1;startSize=38.857142857142854;horizontalStack=0;resizeParent=1;resizeParentMax=0;resizeLast=0;collapsible=0;marginBottom=0;labelBackgroundColor=none;fillColor=#F5AB50;strokeColor=#909090;fontColor=#1A1A1A;rounded=0;fontSize=20;" parent="WIyWlLk6GJQsqaUBKTNV-1" vertex="1">
          <mxGeometry x="740" y="789" width="168" height="135.85714285714286" as="geometry" />
        </mxCell>
        <mxCell id="D4eZ-Hi1aHxsngLYi5m4-46" value="+int quantity" style="text;strokeColor=none;fillColor=none;align=left;verticalAlign=top;spacingLeft=4;spacingRight=4;overflow=hidden;rotatable=0;points=[[0,0.5],[1,0.5]];portConstraint=eastwest;labelBackgroundColor=none;fontColor=#1A1A1A;rounded=0;fontSize=20;" parent="D4eZ-Hi1aHxsngLYi5m4-45" vertex="1">
          <mxGeometry y="38.857142857142854" width="168" height="39" as="geometry" />
        </mxCell>
        <mxCell id="D4eZ-Hi1aHxsngLYi5m4-47" value="+float subtotal" style="text;strokeColor=none;fillColor=none;align=left;verticalAlign=top;spacingLeft=4;spacingRight=4;overflow=hidden;rotatable=0;points=[[0,0.5],[1,0.5]];portConstraint=eastwest;labelBackgroundColor=none;fontColor=#1A1A1A;rounded=0;fontSize=20;" parent="D4eZ-Hi1aHxsngLYi5m4-45" vertex="1">
          <mxGeometry y="77.85714285714286" width="168" height="39" as="geometry" />
        </mxCell>
        <mxCell id="D4eZ-Hi1aHxsngLYi5m4-48" style="line;strokeWidth=1;fillColor=none;align=left;verticalAlign=middle;spacingTop=-1;spacingLeft=3;spacingRight=3;rotatable=0;labelPosition=right;points=[];portConstraint=eastwest;labelBackgroundColor=none;strokeColor=#909090;fontColor=#1A1A1A;rounded=0;fontSize=20;" parent="D4eZ-Hi1aHxsngLYi5m4-45" vertex="1">
          <mxGeometry y="116.85714285714286" width="168" height="19" as="geometry" />
        </mxCell>
        <mxCell id="D4eZ-Hi1aHxsngLYi5m4-49" value="Table" style="swimlane;fontStyle=1;align=center;verticalAlign=top;childLayout=stackLayout;horizontal=1;startSize=33.45454545454545;horizontalStack=0;resizeParent=1;resizeParentMax=0;resizeLast=0;collapsible=0;marginBottom=0;labelBackgroundColor=none;fillColor=#F5AB50;strokeColor=#909090;fontColor=#1A1A1A;rounded=0;fontSize=20;" parent="WIyWlLk6GJQsqaUBKTNV-1" vertex="1">
          <mxGeometry x="575" y="61" width="204" height="182.45454545454544" as="geometry" />
        </mxCell>
        <mxCell id="D4eZ-Hi1aHxsngLYi5m4-50" value="+int tableId" style="text;strokeColor=none;fillColor=none;align=left;verticalAlign=top;spacingLeft=4;spacingRight=4;overflow=hidden;rotatable=0;points=[[0,0.5],[1,0.5]];portConstraint=eastwest;labelBackgroundColor=none;fontColor=#1A1A1A;rounded=0;fontSize=20;" parent="D4eZ-Hi1aHxsngLYi5m4-49" vertex="1">
          <mxGeometry y="33.45454545454545" width="204" height="33" as="geometry" />
        </mxCell>
        <mxCell id="D4eZ-Hi1aHxsngLYi5m4-51" value="+int capacity" style="text;strokeColor=none;fillColor=none;align=left;verticalAlign=top;spacingLeft=4;spacingRight=4;overflow=hidden;rotatable=0;points=[[0,0.5],[1,0.5]];portConstraint=eastwest;labelBackgroundColor=none;fontColor=#1A1A1A;rounded=0;fontSize=20;" parent="D4eZ-Hi1aHxsngLYi5m4-49" vertex="1">
          <mxGeometry y="66.45454545454545" width="204" height="33" as="geometry" />
        </mxCell>
        <mxCell id="D4eZ-Hi1aHxsngLYi5m4-52" value="+String location" style="text;strokeColor=none;fillColor=none;align=left;verticalAlign=top;spacingLeft=4;spacingRight=4;overflow=hidden;rotatable=0;points=[[0,0.5],[1,0.5]];portConstraint=eastwest;labelBackgroundColor=none;fontColor=#1A1A1A;rounded=0;fontSize=20;" parent="D4eZ-Hi1aHxsngLYi5m4-49" vertex="1">
          <mxGeometry y="99.45454545454545" width="204" height="33" as="geometry" />
        </mxCell>
        <mxCell id="D4eZ-Hi1aHxsngLYi5m4-53" value="+boolean isAvailable" style="text;strokeColor=none;fillColor=none;align=left;verticalAlign=top;spacingLeft=4;spacingRight=4;overflow=hidden;rotatable=0;points=[[0,0.5],[1,0.5]];portConstraint=eastwest;labelBackgroundColor=none;fontColor=#1A1A1A;rounded=0;fontSize=20;" parent="D4eZ-Hi1aHxsngLYi5m4-49" vertex="1">
          <mxGeometry y="132.45454545454544" width="204" height="33" as="geometry" />
        </mxCell>
        <mxCell id="D4eZ-Hi1aHxsngLYi5m4-54" style="line;strokeWidth=1;fillColor=none;align=left;verticalAlign=middle;spacingTop=-1;spacingLeft=3;spacingRight=3;rotatable=0;labelPosition=right;points=[];portConstraint=eastwest;labelBackgroundColor=none;strokeColor=#909090;fontColor=#1A1A1A;rounded=0;fontSize=20;" parent="D4eZ-Hi1aHxsngLYi5m4-49" vertex="1">
          <mxGeometry y="165.45454545454544" width="204" height="17" as="geometry" />
        </mxCell>
        <mxCell id="D4eZ-Hi1aHxsngLYi5m4-55" value="Reservation" style="swimlane;fontStyle=1;align=center;verticalAlign=top;childLayout=stackLayout;horizontal=1;startSize=34.666666666666664;horizontalStack=0;resizeParent=1;resizeParentMax=0;resizeLast=0;collapsible=0;marginBottom=0;labelBackgroundColor=none;fillColor=#F5AB50;strokeColor=#909090;fontColor=#1A1A1A;rounded=0;fontSize=20;" parent="WIyWlLk6GJQsqaUBKTNV-1" vertex="1">
          <mxGeometry x="528" y="408" width="220" height="217.66666666666666" as="geometry" />
        </mxCell>
        <mxCell id="D4eZ-Hi1aHxsngLYi5m4-56" value="+int reservationId" style="text;strokeColor=none;fillColor=none;align=left;verticalAlign=top;spacingLeft=4;spacingRight=4;overflow=hidden;rotatable=0;points=[[0,0.5],[1,0.5]];portConstraint=eastwest;labelBackgroundColor=none;fontColor=#1A1A1A;rounded=0;fontSize=20;" parent="D4eZ-Hi1aHxsngLYi5m4-55" vertex="1">
          <mxGeometry y="34.666666666666664" width="220" height="35" as="geometry" />
        </mxCell>
        <mxCell id="D4eZ-Hi1aHxsngLYi5m4-57" value="+DateTime dateTime" style="text;strokeColor=none;fillColor=none;align=left;verticalAlign=top;spacingLeft=4;spacingRight=4;overflow=hidden;rotatable=0;points=[[0,0.5],[1,0.5]];portConstraint=eastwest;labelBackgroundColor=none;fontColor=#1A1A1A;rounded=0;fontSize=20;" parent="D4eZ-Hi1aHxsngLYi5m4-55" vertex="1">
          <mxGeometry y="69.66666666666666" width="220" height="35" as="geometry" />
        </mxCell>
        <mxCell id="D4eZ-Hi1aHxsngLYi5m4-58" value="+int numberOfGuests" style="text;strokeColor=none;fillColor=none;align=left;verticalAlign=top;spacingLeft=4;spacingRight=4;overflow=hidden;rotatable=0;points=[[0,0.5],[1,0.5]];portConstraint=eastwest;labelBackgroundColor=none;fontColor=#1A1A1A;rounded=0;fontSize=20;" parent="D4eZ-Hi1aHxsngLYi5m4-55" vertex="1">
          <mxGeometry y="104.66666666666666" width="220" height="35" as="geometry" />
        </mxCell>
        <mxCell id="D4eZ-Hi1aHxsngLYi5m4-59" style="line;strokeWidth=1;fillColor=none;align=left;verticalAlign=middle;spacingTop=-1;spacingLeft=3;spacingRight=3;rotatable=0;labelPosition=right;points=[];portConstraint=eastwest;labelBackgroundColor=none;strokeColor=#909090;fontColor=#1A1A1A;rounded=0;fontSize=20;" parent="D4eZ-Hi1aHxsngLYi5m4-55" vertex="1">
          <mxGeometry y="139.66666666666666" width="220" height="8" as="geometry" />
        </mxCell>
        <mxCell id="D4eZ-Hi1aHxsngLYi5m4-60" value="+makeReservation()" style="text;strokeColor=none;fillColor=none;align=left;verticalAlign=top;spacingLeft=4;spacingRight=4;overflow=hidden;rotatable=0;points=[[0,0.5],[1,0.5]];portConstraint=eastwest;labelBackgroundColor=none;fontColor=#1A1A1A;rounded=0;fontSize=20;" parent="D4eZ-Hi1aHxsngLYi5m4-55" vertex="1">
          <mxGeometry y="147.66666666666666" width="220" height="35" as="geometry" />
        </mxCell>
        <mxCell id="D4eZ-Hi1aHxsngLYi5m4-61" value="+cancelReservation()" style="text;strokeColor=none;fillColor=none;align=left;verticalAlign=top;spacingLeft=4;spacingRight=4;overflow=hidden;rotatable=0;points=[[0,0.5],[1,0.5]];portConstraint=eastwest;labelBackgroundColor=none;fontColor=#1A1A1A;rounded=0;fontSize=20;" parent="D4eZ-Hi1aHxsngLYi5m4-55" vertex="1">
          <mxGeometry y="182.66666666666666" width="220" height="35" as="geometry" />
        </mxCell>
        <mxCell id="D4eZ-Hi1aHxsngLYi5m4-62" value="Payment" style="swimlane;fontStyle=1;align=center;verticalAlign=top;childLayout=stackLayout;horizontal=1;startSize=33.142857142857146;horizontalStack=0;resizeParent=1;resizeParentMax=0;resizeLast=0;collapsible=0;marginBottom=0;labelBackgroundColor=none;fillColor=#F5AB50;strokeColor=#909090;fontColor=#1A1A1A;rounded=0;fontSize=20;" parent="WIyWlLk6GJQsqaUBKTNV-1" vertex="1">
          <mxGeometry x="707" y="993" width="234" height="239.14285714285714" as="geometry" />
        </mxCell>
        <mxCell id="D4eZ-Hi1aHxsngLYi5m4-63" value="+int paymentId" style="text;strokeColor=none;fillColor=none;align=left;verticalAlign=top;spacingLeft=4;spacingRight=4;overflow=hidden;rotatable=0;points=[[0,0.5],[1,0.5]];portConstraint=eastwest;labelBackgroundColor=none;fontColor=#1A1A1A;rounded=0;fontSize=20;" parent="D4eZ-Hi1aHxsngLYi5m4-62" vertex="1">
          <mxGeometry y="33.142857142857146" width="234" height="33" as="geometry" />
        </mxCell>
        <mxCell id="D4eZ-Hi1aHxsngLYi5m4-64" value="+float amount" style="text;strokeColor=none;fillColor=none;align=left;verticalAlign=top;spacingLeft=4;spacingRight=4;overflow=hidden;rotatable=0;points=[[0,0.5],[1,0.5]];portConstraint=eastwest;labelBackgroundColor=none;fontColor=#1A1A1A;rounded=0;fontSize=20;" parent="D4eZ-Hi1aHxsngLYi5m4-62" vertex="1">
          <mxGeometry y="66.14285714285714" width="234" height="33" as="geometry" />
        </mxCell>
        <mxCell id="D4eZ-Hi1aHxsngLYi5m4-65" value="+DateTime paymentDate" style="text;strokeColor=none;fillColor=none;align=left;verticalAlign=top;spacingLeft=4;spacingRight=4;overflow=hidden;rotatable=0;points=[[0,0.5],[1,0.5]];portConstraint=eastwest;labelBackgroundColor=none;fontColor=#1A1A1A;rounded=0;fontSize=20;" parent="D4eZ-Hi1aHxsngLYi5m4-62" vertex="1">
          <mxGeometry y="99.14285714285714" width="234" height="33" as="geometry" />
        </mxCell>
        <mxCell id="D4eZ-Hi1aHxsngLYi5m4-66" value="+String method" style="text;strokeColor=none;fillColor=none;align=left;verticalAlign=top;spacingLeft=4;spacingRight=4;overflow=hidden;rotatable=0;points=[[0,0.5],[1,0.5]];portConstraint=eastwest;labelBackgroundColor=none;fontColor=#1A1A1A;rounded=0;fontSize=20;" parent="D4eZ-Hi1aHxsngLYi5m4-62" vertex="1">
          <mxGeometry y="132.14285714285714" width="234" height="33" as="geometry" />
        </mxCell>
        <mxCell id="D4eZ-Hi1aHxsngLYi5m4-67" value="+String status" style="text;strokeColor=none;fillColor=none;align=left;verticalAlign=top;spacingLeft=4;spacingRight=4;overflow=hidden;rotatable=0;points=[[0,0.5],[1,0.5]];portConstraint=eastwest;labelBackgroundColor=none;fontColor=#1A1A1A;rounded=0;fontSize=20;" parent="D4eZ-Hi1aHxsngLYi5m4-62" vertex="1">
          <mxGeometry y="165.14285714285714" width="234" height="33" as="geometry" />
        </mxCell>
        <mxCell id="D4eZ-Hi1aHxsngLYi5m4-68" style="line;strokeWidth=1;fillColor=none;align=left;verticalAlign=middle;spacingTop=-1;spacingLeft=3;spacingRight=3;rotatable=0;labelPosition=right;points=[];portConstraint=eastwest;labelBackgroundColor=none;strokeColor=#909090;fontColor=#1A1A1A;rounded=0;fontSize=20;" parent="D4eZ-Hi1aHxsngLYi5m4-62" vertex="1">
          <mxGeometry y="198.14285714285714" width="234" height="8" as="geometry" />
        </mxCell>
        <mxCell id="D4eZ-Hi1aHxsngLYi5m4-69" value="+processPayment()" style="text;strokeColor=none;fillColor=none;align=left;verticalAlign=top;spacingLeft=4;spacingRight=4;overflow=hidden;rotatable=0;points=[[0,0.5],[1,0.5]];portConstraint=eastwest;labelBackgroundColor=none;fontColor=#1A1A1A;rounded=0;fontSize=20;" parent="D4eZ-Hi1aHxsngLYi5m4-62" vertex="1">
          <mxGeometry y="206.14285714285714" width="234" height="33" as="geometry" />
        </mxCell>
        <mxCell id="D4eZ-Hi1aHxsngLYi5m4-70" value="Feedback" style="swimlane;fontStyle=1;align=center;verticalAlign=top;childLayout=stackLayout;horizontal=1;startSize=33.45454545454545;horizontalStack=0;resizeParent=1;resizeParentMax=0;resizeLast=0;collapsible=0;marginBottom=0;labelBackgroundColor=none;fillColor=#F5AB50;strokeColor=#909090;fontColor=#1A1A1A;rounded=0;fontSize=20;" parent="WIyWlLk6GJQsqaUBKTNV-1" vertex="1">
          <mxGeometry x="70" y="434.00000000000006" width="181" height="182.45454545454544" as="geometry" />
        </mxCell>
        <mxCell id="D4eZ-Hi1aHxsngLYi5m4-71" value="+int feedbackId" style="text;strokeColor=none;fillColor=none;align=left;verticalAlign=top;spacingLeft=4;spacingRight=4;overflow=hidden;rotatable=0;points=[[0,0.5],[1,0.5]];portConstraint=eastwest;labelBackgroundColor=none;fontColor=#1A1A1A;rounded=0;fontSize=20;" parent="D4eZ-Hi1aHxsngLYi5m4-70" vertex="1">
          <mxGeometry y="33.45454545454545" width="181" height="33" as="geometry" />
        </mxCell>
        <mxCell id="D4eZ-Hi1aHxsngLYi5m4-72" value="+String comment" style="text;strokeColor=none;fillColor=none;align=left;verticalAlign=top;spacingLeft=4;spacingRight=4;overflow=hidden;rotatable=0;points=[[0,0.5],[1,0.5]];portConstraint=eastwest;labelBackgroundColor=none;fontColor=#1A1A1A;rounded=0;fontSize=20;" parent="D4eZ-Hi1aHxsngLYi5m4-70" vertex="1">
          <mxGeometry y="66.45454545454545" width="181" height="33" as="geometry" />
        </mxCell>
        <mxCell id="D4eZ-Hi1aHxsngLYi5m4-73" value="+int rating" style="text;strokeColor=none;fillColor=none;align=left;verticalAlign=top;spacingLeft=4;spacingRight=4;overflow=hidden;rotatable=0;points=[[0,0.5],[1,0.5]];portConstraint=eastwest;labelBackgroundColor=none;fontColor=#1A1A1A;rounded=0;fontSize=20;" parent="D4eZ-Hi1aHxsngLYi5m4-70" vertex="1">
          <mxGeometry y="99.45454545454545" width="181" height="33" as="geometry" />
        </mxCell>
        <mxCell id="D4eZ-Hi1aHxsngLYi5m4-74" value="+DateTime date" style="text;strokeColor=none;fillColor=none;align=left;verticalAlign=top;spacingLeft=4;spacingRight=4;overflow=hidden;rotatable=0;points=[[0,0.5],[1,0.5]];portConstraint=eastwest;labelBackgroundColor=none;fontColor=#1A1A1A;rounded=0;fontSize=20;" parent="D4eZ-Hi1aHxsngLYi5m4-70" vertex="1">
          <mxGeometry y="132.45454545454544" width="181" height="33" as="geometry" />
        </mxCell>
        <mxCell id="D4eZ-Hi1aHxsngLYi5m4-75" style="line;strokeWidth=1;fillColor=none;align=left;verticalAlign=middle;spacingTop=-1;spacingLeft=3;spacingRight=3;rotatable=0;labelPosition=right;points=[];portConstraint=eastwest;labelBackgroundColor=none;strokeColor=#909090;fontColor=#1A1A1A;rounded=0;fontSize=20;" parent="D4eZ-Hi1aHxsngLYi5m4-70" vertex="1">
          <mxGeometry y="165.45454545454544" width="181" height="17" as="geometry" />
        </mxCell>
        <mxCell id="D4eZ-Hi1aHxsngLYi5m4-76" value="Inventory" style="swimlane;fontStyle=1;align=center;verticalAlign=top;childLayout=stackLayout;horizontal=1;startSize=36.8;horizontalStack=0;resizeParent=1;resizeParentMax=0;resizeLast=0;collapsible=0;marginBottom=0;labelBackgroundColor=none;fillColor=#F5AB50;strokeColor=#909090;fontColor=#1A1A1A;rounded=0;fontSize=20;" parent="WIyWlLk6GJQsqaUBKTNV-1" vertex="1">
          <mxGeometry x="1219" y="638" width="228" height="192.8" as="geometry" />
        </mxCell>
        <mxCell id="D4eZ-Hi1aHxsngLYi5m4-77" value="+int inventoryId" style="text;strokeColor=none;fillColor=none;align=left;verticalAlign=top;spacingLeft=4;spacingRight=4;overflow=hidden;rotatable=0;points=[[0,0.5],[1,0.5]];portConstraint=eastwest;labelBackgroundColor=none;fontColor=#1A1A1A;rounded=0;fontSize=20;" parent="D4eZ-Hi1aHxsngLYi5m4-76" vertex="1">
          <mxGeometry y="36.8" width="228" height="37" as="geometry" />
        </mxCell>
        <mxCell id="D4eZ-Hi1aHxsngLYi5m4-78" style="line;strokeWidth=1;fillColor=none;align=left;verticalAlign=middle;spacingTop=-1;spacingLeft=3;spacingRight=3;rotatable=0;labelPosition=right;points=[];portConstraint=eastwest;labelBackgroundColor=none;strokeColor=#909090;fontColor=#1A1A1A;rounded=0;fontSize=20;" parent="D4eZ-Hi1aHxsngLYi5m4-76" vertex="1">
          <mxGeometry y="73.8" width="228" height="8" as="geometry" />
        </mxCell>
        <mxCell id="D4eZ-Hi1aHxsngLYi5m4-79" value="+checkStock()" style="text;strokeColor=none;fillColor=none;align=left;verticalAlign=top;spacingLeft=4;spacingRight=4;overflow=hidden;rotatable=0;points=[[0,0.5],[1,0.5]];portConstraint=eastwest;labelBackgroundColor=none;fontColor=#1A1A1A;rounded=0;fontSize=20;" parent="D4eZ-Hi1aHxsngLYi5m4-76" vertex="1">
          <mxGeometry y="81.8" width="228" height="37" as="geometry" />
        </mxCell>
        <mxCell id="D4eZ-Hi1aHxsngLYi5m4-80" value="+restockItem(Item, int)" style="text;strokeColor=none;fillColor=none;align=left;verticalAlign=top;spacingLeft=4;spacingRight=4;overflow=hidden;rotatable=0;points=[[0,0.5],[1,0.5]];portConstraint=eastwest;labelBackgroundColor=none;fontColor=#1A1A1A;rounded=0;fontSize=20;" parent="D4eZ-Hi1aHxsngLYi5m4-76" vertex="1">
          <mxGeometry y="118.8" width="228" height="37" as="geometry" />
        </mxCell>
        <mxCell id="D4eZ-Hi1aHxsngLYi5m4-81" value="+alertLowStock()" style="text;strokeColor=none;fillColor=none;align=left;verticalAlign=top;spacingLeft=4;spacingRight=4;overflow=hidden;rotatable=0;points=[[0,0.5],[1,0.5]];portConstraint=eastwest;labelBackgroundColor=none;fontColor=#1A1A1A;rounded=0;fontSize=20;" parent="D4eZ-Hi1aHxsngLYi5m4-76" vertex="1">
          <mxGeometry y="155.8" width="228" height="37" as="geometry" />
        </mxCell>
        <mxCell id="D4eZ-Hi1aHxsngLYi5m4-82" value="Report" style="swimlane;fontStyle=1;align=center;verticalAlign=top;childLayout=stackLayout;horizontal=1;startSize=40;horizontalStack=0;resizeParent=1;resizeParentMax=0;resizeLast=0;collapsible=0;marginBottom=0;labelBackgroundColor=none;fillColor=#F5AB50;strokeColor=#909090;fontColor=#1A1A1A;rounded=0;fontSize=20;" parent="WIyWlLk6GJQsqaUBKTNV-1" vertex="1">
          <mxGeometry x="980" y="638" width="181" height="168" as="geometry" />
        </mxCell>
        <mxCell id="D4eZ-Hi1aHxsngLYi5m4-83" value="+int reportId" style="text;strokeColor=none;fillColor=none;align=left;verticalAlign=top;spacingLeft=4;spacingRight=4;overflow=hidden;rotatable=0;points=[[0,0.5],[1,0.5]];portConstraint=eastwest;labelBackgroundColor=none;fontColor=#1A1A1A;rounded=0;fontSize=20;" parent="D4eZ-Hi1aHxsngLYi5m4-82" vertex="1">
          <mxGeometry y="40" width="181" height="40" as="geometry" />
        </mxCell>
        <mxCell id="D4eZ-Hi1aHxsngLYi5m4-84" value="+String type" style="text;strokeColor=none;fillColor=none;align=left;verticalAlign=top;spacingLeft=4;spacingRight=4;overflow=hidden;rotatable=0;points=[[0,0.5],[1,0.5]];portConstraint=eastwest;labelBackgroundColor=none;fontColor=#1A1A1A;rounded=0;fontSize=20;" parent="D4eZ-Hi1aHxsngLYi5m4-82" vertex="1">
          <mxGeometry y="80" width="181" height="40" as="geometry" />
        </mxCell>
        <mxCell id="D4eZ-Hi1aHxsngLYi5m4-85" style="line;strokeWidth=1;fillColor=none;align=left;verticalAlign=middle;spacingTop=-1;spacingLeft=3;spacingRight=3;rotatable=0;labelPosition=right;points=[];portConstraint=eastwest;labelBackgroundColor=none;strokeColor=#909090;fontColor=#1A1A1A;rounded=0;fontSize=20;" parent="D4eZ-Hi1aHxsngLYi5m4-82" vertex="1">
          <mxGeometry y="120" width="181" height="8" as="geometry" />
        </mxCell>
        <mxCell id="D4eZ-Hi1aHxsngLYi5m4-86" value="+generateReport()" style="text;strokeColor=none;fillColor=none;align=left;verticalAlign=top;spacingLeft=4;spacingRight=4;overflow=hidden;rotatable=0;points=[[0,0.5],[1,0.5]];portConstraint=eastwest;labelBackgroundColor=none;fontColor=#1A1A1A;rounded=0;fontSize=20;" parent="D4eZ-Hi1aHxsngLYi5m4-82" vertex="1">
          <mxGeometry y="128" width="181" height="40" as="geometry" />
        </mxCell>
        <mxCell id="D4eZ-Hi1aHxsngLYi5m4-87" value="" style="curved=1;startArrow=block;startSize=16;startFill=0;endArrow=none;entryX=0.5;entryY=0;rounded=0;exitX=1;exitY=0.5;exitDx=0;exitDy=0;labelBackgroundColor=none;fontColor=default;strokeColor=#182E3E;fontSize=20;" parent="WIyWlLk6GJQsqaUBKTNV-1" source="D4eZ-Hi1aHxsngLYi5m4-3" target="D4eZ-Hi1aHxsngLYi5m4-9" edge="1">
          <mxGeometry relative="1" as="geometry">
            <Array as="points">
              <mxPoint x="1175" y="-253" />
            </Array>
            <mxPoint x="859" y="-343" as="sourcePoint" />
          </mxGeometry>
        </mxCell>
        <mxCell id="D4eZ-Hi1aHxsngLYi5m4-88" value="" style="curved=1;startArrow=block;startSize=16;startFill=0;endArrow=none;exitX=0.478;exitY=0.994;entryX=0;entryY=0.25;rounded=0;exitDx=0;exitDy=0;exitPerimeter=0;entryDx=0;entryDy=0;labelBackgroundColor=none;fontColor=default;strokeColor=#182E3E;fontSize=20;" parent="WIyWlLk6GJQsqaUBKTNV-1" source="D4eZ-Hi1aHxsngLYi5m4-8" target="D4eZ-Hi1aHxsngLYi5m4-13" edge="1">
          <mxGeometry relative="1" as="geometry">
            <Array as="points">
              <mxPoint x="831" y="24" />
            </Array>
            <mxPoint x="761.9999999999999" y="-86" as="sourcePoint" />
            <mxPoint x="991.42" y="350.6700000000001" as="targetPoint" />
          </mxGeometry>
        </mxCell>
        <mxCell id="D4eZ-Hi1aHxsngLYi5m4-90" value="" style="curved=1;startArrow=diamondThin;startSize=14;startFill=1;endArrow=none;exitX=0.5;exitY=1;entryX=0.564;entryY=1.002;rounded=0;labelBackgroundColor=none;fontColor=default;strokeColor=#182E3E;entryDx=0;entryDy=0;entryPerimeter=0;fontSize=20;" parent="WIyWlLk6GJQsqaUBKTNV-1" source="D4eZ-Hi1aHxsngLYi5m4-22" target="D4eZ-Hi1aHxsngLYi5m4-35" edge="1">
          <mxGeometry relative="1" as="geometry">
            <Array as="points">
              <mxPoint x="420" y="1474" />
            </Array>
          </mxGeometry>
        </mxCell>
        <mxCell id="D4eZ-Hi1aHxsngLYi5m4-91" value="1" style="edgeLabel;resizable=0;labelBackgroundColor=none;fontSize=20;align=left;verticalAlign=top;fontColor=#1A1A1A;rounded=0;" parent="D4eZ-Hi1aHxsngLYi5m4-90" vertex="1">
          <mxGeometry x="-1" relative="1" as="geometry">
            <mxPoint x="3" y="16" as="offset" />
          </mxGeometry>
        </mxCell>
        <mxCell id="D4eZ-Hi1aHxsngLYi5m4-92" value="*" style="edgeLabel;resizable=0;labelBackgroundColor=none;fontSize=20;align=right;verticalAlign=bottom;fontColor=#1A1A1A;rounded=0;" parent="D4eZ-Hi1aHxsngLYi5m4-90" vertex="1">
          <mxGeometry x="1" relative="1" as="geometry">
            <mxPoint x="-42" y="31" as="offset" />
          </mxGeometry>
        </mxCell>
        <mxCell id="D4eZ-Hi1aHxsngLYi5m4-93" value="" style="curved=1;startArrow=diamondThin;startSize=14;startFill=0;endArrow=none;exitX=1;exitY=0.76;entryX=0;entryY=0.5;rounded=0;labelBackgroundColor=none;fontColor=default;strokeColor=#182E3E;entryDx=0;entryDy=0;fontSize=20;" parent="WIyWlLk6GJQsqaUBKTNV-1" source="D4eZ-Hi1aHxsngLYi5m4-36" target="D4eZ-Hi1aHxsngLYi5m4-47" edge="1">
          <mxGeometry relative="1" as="geometry">
            <Array as="points" />
          </mxGeometry>
        </mxCell>
        <mxCell id="D4eZ-Hi1aHxsngLYi5m4-94" value="1" style="edgeLabel;resizable=0;labelBackgroundColor=none;fontSize=20;align=left;verticalAlign=top;fontColor=#1A1A1A;rounded=0;" parent="D4eZ-Hi1aHxsngLYi5m4-93" vertex="1">
          <mxGeometry x="-1" relative="1" as="geometry" />
        </mxCell>
        <mxCell id="D4eZ-Hi1aHxsngLYi5m4-95" value="*" style="edgeLabel;resizable=0;labelBackgroundColor=none;fontSize=20;align=right;verticalAlign=bottom;fontColor=#1A1A1A;rounded=0;" parent="D4eZ-Hi1aHxsngLYi5m4-93" vertex="1">
          <mxGeometry x="1" relative="1" as="geometry" />
        </mxCell>
        <mxCell id="D4eZ-Hi1aHxsngLYi5m4-96" value="" style="curved=1;startArrow=none;endArrow=open;endSize=12;exitX=1;exitY=0.5;entryX=0;entryY=0;rounded=0;labelBackgroundColor=none;fontColor=default;strokeColor=#182E3E;entryDx=0;entryDy=0;exitDx=0;exitDy=0;fontSize=20;" parent="WIyWlLk6GJQsqaUBKTNV-1" source="D4eZ-Hi1aHxsngLYi5m4-47" target="D4eZ-Hi1aHxsngLYi5m4-28" edge="1">
          <mxGeometry relative="1" as="geometry">
            <Array as="points">
              <mxPoint x="1028" y="886" />
              <mxPoint x="1131" y="906" />
            </Array>
          </mxGeometry>
        </mxCell>
        <mxCell id="D4eZ-Hi1aHxsngLYi5m4-97" value="*" style="edgeLabel;resizable=0;labelBackgroundColor=none;fontSize=20;align=right;verticalAlign=top;fontColor=#1A1A1A;rounded=0;" parent="D4eZ-Hi1aHxsngLYi5m4-96" vertex="1">
          <mxGeometry x="-1" relative="1" as="geometry">
            <mxPoint x="14" y="-4" as="offset" />
          </mxGeometry>
        </mxCell>
        <mxCell id="D4eZ-Hi1aHxsngLYi5m4-98" value="1" style="edgeLabel;resizable=0;labelBackgroundColor=none;fontSize=20;align=left;verticalAlign=bottom;fontColor=#1A1A1A;rounded=0;" parent="D4eZ-Hi1aHxsngLYi5m4-96" vertex="1">
          <mxGeometry x="1" relative="1" as="geometry" />
        </mxCell>
        <mxCell id="D4eZ-Hi1aHxsngLYi5m4-99" value="" style="curved=1;startArrow=none;endArrow=open;endSize=12;exitX=1;exitY=0.5;entryX=0;entryY=0;rounded=0;entryDx=0;entryDy=0;exitDx=0;exitDy=0;labelBackgroundColor=none;fontColor=default;strokeColor=#182E3E;fontSize=20;" parent="WIyWlLk6GJQsqaUBKTNV-1" source="D4eZ-Hi1aHxsngLYi5m4-21" target="D4eZ-Hi1aHxsngLYi5m4-55" edge="1">
          <mxGeometry relative="1" as="geometry">
            <Array as="points">
              <mxPoint x="507" y="300" />
            </Array>
          </mxGeometry>
        </mxCell>
        <mxCell id="D4eZ-Hi1aHxsngLYi5m4-100" value="1" style="edgeLabel;resizable=0;labelBackgroundColor=none;fontSize=20;align=right;verticalAlign=top;fontColor=#1A1A1A;rounded=0;" parent="D4eZ-Hi1aHxsngLYi5m4-99" vertex="1">
          <mxGeometry x="-1" relative="1" as="geometry">
            <mxPoint x="18" y="-3" as="offset" />
          </mxGeometry>
        </mxCell>
        <mxCell id="D4eZ-Hi1aHxsngLYi5m4-101" value="*" style="edgeLabel;resizable=0;labelBackgroundColor=none;fontSize=20;align=left;verticalAlign=bottom;fontColor=#1A1A1A;rounded=0;" parent="D4eZ-Hi1aHxsngLYi5m4-99" vertex="1">
          <mxGeometry x="1" relative="1" as="geometry">
            <mxPoint x="-5" y="-12" as="offset" />
          </mxGeometry>
        </mxCell>
        <mxCell id="D4eZ-Hi1aHxsngLYi5m4-102" value="handles" style="curved=1;startArrow=none;endArrow=open;endSize=12;exitX=0.782;exitY=0.959;entryX=1;entryY=0.5;rounded=0;labelBackgroundColor=none;fontColor=default;strokeColor=#182E3E;entryDx=0;entryDy=0;exitDx=0;exitDy=0;exitPerimeter=0;fontSize=20;" parent="WIyWlLk6GJQsqaUBKTNV-1" source="D4eZ-Hi1aHxsngLYi5m4-16" target="D4eZ-Hi1aHxsngLYi5m4-39" edge="1">
          <mxGeometry x="-0.1115" y="-69" relative="1" as="geometry">
            <Array as="points">
              <mxPoint x="877" y="706" />
            </Array>
            <mxPoint as="offset" />
          </mxGeometry>
        </mxCell>
        <mxCell id="D4eZ-Hi1aHxsngLYi5m4-103" value="1" style="edgeLabel;resizable=0;labelBackgroundColor=none;fontSize=20;align=right;verticalAlign=top;fontColor=#1A1A1A;rounded=0;" parent="D4eZ-Hi1aHxsngLYi5m4-102" vertex="1">
          <mxGeometry x="-1" relative="1" as="geometry">
            <mxPoint x="10" as="offset" />
          </mxGeometry>
        </mxCell>
        <mxCell id="D4eZ-Hi1aHxsngLYi5m4-104" value="*" style="edgeLabel;resizable=0;labelBackgroundColor=none;fontSize=20;align=left;verticalAlign=bottom;fontColor=#1A1A1A;rounded=0;" parent="D4eZ-Hi1aHxsngLYi5m4-102" vertex="1">
          <mxGeometry x="1" relative="1" as="geometry" />
        </mxCell>
        <mxCell id="D4eZ-Hi1aHxsngLYi5m4-105" value="" style="curved=1;startArrow=none;endArrow=open;endSize=12;exitX=0.507;exitY=1.052;rounded=0;entryX=0.5;entryY=0;entryDx=0;entryDy=0;exitDx=0;exitDy=0;exitPerimeter=0;labelBackgroundColor=none;fontColor=default;strokeColor=#182E3E;fontSize=20;" parent="WIyWlLk6GJQsqaUBKTNV-1" source="D4eZ-Hi1aHxsngLYi5m4-21" target="D4eZ-Hi1aHxsngLYi5m4-36" edge="1">
          <mxGeometry relative="1" as="geometry">
            <Array as="points" />
            <mxPoint x="540" y="487" as="targetPoint" />
          </mxGeometry>
        </mxCell>
        <mxCell id="D4eZ-Hi1aHxsngLYi5m4-106" value="1" style="edgeLabel;resizable=0;labelBackgroundColor=none;fontSize=20;align=left;verticalAlign=top;fontColor=#1A1A1A;rounded=0;" parent="D4eZ-Hi1aHxsngLYi5m4-105" vertex="1">
          <mxGeometry x="-1" relative="1" as="geometry" />
        </mxCell>
        <mxCell id="D4eZ-Hi1aHxsngLYi5m4-107" value="*" style="edgeLabel;resizable=0;labelBackgroundColor=none;fontSize=20;align=right;verticalAlign=bottom;fontColor=#1A1A1A;rounded=0;" parent="D4eZ-Hi1aHxsngLYi5m4-105" vertex="1">
          <mxGeometry x="1" relative="1" as="geometry">
            <mxPoint x="7" y="-12" as="offset" />
          </mxGeometry>
        </mxCell>
        <mxCell id="D4eZ-Hi1aHxsngLYi5m4-108" value="" style="curved=1;startArrow=none;endArrow=open;endSize=12;exitX=0.5;exitY=1;entryX=0.5;entryY=0;rounded=0;labelBackgroundColor=none;fontColor=default;strokeColor=#182E3E;fontSize=20;" parent="WIyWlLk6GJQsqaUBKTNV-1" source="D4eZ-Hi1aHxsngLYi5m4-49" target="D4eZ-Hi1aHxsngLYi5m4-55" edge="1">
          <mxGeometry relative="1" as="geometry">
            <Array as="points" />
          </mxGeometry>
        </mxCell>
        <mxCell id="D4eZ-Hi1aHxsngLYi5m4-109" value="1" style="edgeLabel;resizable=0;labelBackgroundColor=none;fontSize=20;align=right;verticalAlign=top;fontColor=#1A1A1A;rounded=0;" parent="D4eZ-Hi1aHxsngLYi5m4-108" vertex="1">
          <mxGeometry x="-1" relative="1" as="geometry">
            <mxPoint x="-6" y="-1" as="offset" />
          </mxGeometry>
        </mxCell>
        <mxCell id="D4eZ-Hi1aHxsngLYi5m4-110" value="*" style="edgeLabel;resizable=0;labelBackgroundColor=none;fontSize=20;align=left;verticalAlign=bottom;fontColor=#1A1A1A;rounded=0;" parent="D4eZ-Hi1aHxsngLYi5m4-108" vertex="1">
          <mxGeometry x="1" relative="1" as="geometry">
            <mxPoint x="6" y="-8" as="offset" />
          </mxGeometry>
        </mxCell>
        <mxCell id="D4eZ-Hi1aHxsngLYi5m4-111" value="" style="curved=1;startArrow=none;endArrow=open;endSize=12;exitX=0.24;exitY=1;entryX=0;entryY=0.5;rounded=0;labelBackgroundColor=none;fontColor=default;strokeColor=#182E3E;entryDx=0;entryDy=0;fontSize=20;" parent="WIyWlLk6GJQsqaUBKTNV-1" source="D4eZ-Hi1aHxsngLYi5m4-36" target="D4eZ-Hi1aHxsngLYi5m4-65" edge="1">
          <mxGeometry relative="1" as="geometry">
            <Array as="points">
              <mxPoint x="528" y="1001" />
            </Array>
          </mxGeometry>
        </mxCell>
        <mxCell id="D4eZ-Hi1aHxsngLYi5m4-112" value="1" style="edgeLabel;resizable=0;labelBackgroundColor=none;fontSize=20;align=right;verticalAlign=top;fontColor=#1A1A1A;rounded=0;" parent="D4eZ-Hi1aHxsngLYi5m4-111" vertex="1">
          <mxGeometry x="-1" relative="1" as="geometry">
            <mxPoint x="14" y="-1" as="offset" />
          </mxGeometry>
        </mxCell>
        <mxCell id="D4eZ-Hi1aHxsngLYi5m4-113" value="1" style="edgeLabel;resizable=0;labelBackgroundColor=none;fontSize=20;align=left;verticalAlign=bottom;fontColor=#1A1A1A;rounded=0;" parent="D4eZ-Hi1aHxsngLYi5m4-111" vertex="1">
          <mxGeometry x="1" relative="1" as="geometry">
            <mxPoint x="-39" y="-4" as="offset" />
          </mxGeometry>
        </mxCell>
        <mxCell id="D4eZ-Hi1aHxsngLYi5m4-114" value="" style="curved=1;startArrow=none;endArrow=open;endSize=12;exitX=0;exitY=0.5;entryX=0.5;entryY=0;rounded=0;entryDx=0;entryDy=0;exitDx=0;exitDy=0;labelBackgroundColor=none;fontColor=default;strokeColor=#182E3E;fontSize=20;" parent="WIyWlLk6GJQsqaUBKTNV-1" source="D4eZ-Hi1aHxsngLYi5m4-21" target="D4eZ-Hi1aHxsngLYi5m4-70" edge="1">
          <mxGeometry relative="1" as="geometry">
            <Array as="points">
              <mxPoint x="112" y="314" />
            </Array>
            <mxPoint x="249.99999999999991" y="214.99888888888893" as="sourcePoint" />
            <mxPoint x="219.16" y="521.11" as="targetPoint" />
          </mxGeometry>
        </mxCell>
        <mxCell id="D4eZ-Hi1aHxsngLYi5m4-115" value="1" style="edgeLabel;resizable=0;labelBackgroundColor=none;fontSize=20;align=right;verticalAlign=top;fontColor=#1A1A1A;rounded=0;" parent="D4eZ-Hi1aHxsngLYi5m4-114" vertex="1">
          <mxGeometry x="-1" relative="1" as="geometry">
            <mxPoint x="-13" y="-7" as="offset" />
          </mxGeometry>
        </mxCell>
        <mxCell id="D4eZ-Hi1aHxsngLYi5m4-116" value="*" style="edgeLabel;resizable=0;labelBackgroundColor=none;fontSize=20;align=left;verticalAlign=bottom;fontColor=#1A1A1A;rounded=0;" parent="D4eZ-Hi1aHxsngLYi5m4-114" vertex="1">
          <mxGeometry x="1" relative="1" as="geometry">
            <mxPoint x="-3" y="-13" as="offset" />
          </mxGeometry>
        </mxCell>
        <mxCell id="D4eZ-Hi1aHxsngLYi5m4-117" value="" style="curved=1;startArrow=none;endArrow=open;endSize=12;exitX=0.5;exitY=1;entryX=0;entryY=0.5;rounded=0;entryDx=0;entryDy=0;labelBackgroundColor=none;fontColor=default;strokeColor=#182E3E;fontSize=20;" parent="WIyWlLk6GJQsqaUBKTNV-1" source="D4eZ-Hi1aHxsngLYi5m4-70" target="D4eZ-Hi1aHxsngLYi5m4-40" edge="1">
          <mxGeometry relative="1" as="geometry">
            <Array as="points">
              <mxPoint x="161" y="782" />
            </Array>
          </mxGeometry>
        </mxCell>
        <mxCell id="D4eZ-Hi1aHxsngLYi5m4-118" value="*" style="edgeLabel;resizable=0;labelBackgroundColor=none;fontSize=20;align=right;verticalAlign=top;fontColor=#1A1A1A;rounded=0;" parent="D4eZ-Hi1aHxsngLYi5m4-117" vertex="1">
          <mxGeometry x="-1" relative="1" as="geometry" />
        </mxCell>
        <mxCell id="D4eZ-Hi1aHxsngLYi5m4-119" value="1" style="edgeLabel;resizable=0;labelBackgroundColor=none;fontSize=20;align=left;verticalAlign=bottom;fontColor=#1A1A1A;rounded=0;" parent="D4eZ-Hi1aHxsngLYi5m4-117" vertex="1">
          <mxGeometry x="1" relative="1" as="geometry">
            <mxPoint x="-30" y="-9" as="offset" />
          </mxGeometry>
        </mxCell>
        <mxCell id="D4eZ-Hi1aHxsngLYi5m4-120" value="" style="curved=1;startArrow=none;endArrow=open;endSize=12;exitX=0.66;exitY=1;entryX=0.5;entryY=0;rounded=0;labelBackgroundColor=none;fontColor=default;strokeColor=#182E3E;fontSize=20;" parent="WIyWlLk6GJQsqaUBKTNV-1" source="D4eZ-Hi1aHxsngLYi5m4-9" target="D4eZ-Hi1aHxsngLYi5m4-76" edge="1">
          <mxGeometry relative="1" as="geometry">
            <Array as="points">
              <mxPoint x="1375" y="517" />
            </Array>
          </mxGeometry>
        </mxCell>
        <mxCell id="D4eZ-Hi1aHxsngLYi5m4-121" value="1" style="edgeLabel;resizable=0;labelBackgroundColor=none;fontSize=20;align=right;verticalAlign=top;fontColor=#1A1A1A;rounded=0;" parent="D4eZ-Hi1aHxsngLYi5m4-120" vertex="1">
          <mxGeometry x="-1" relative="1" as="geometry">
            <mxPoint x="15" y="2" as="offset" />
          </mxGeometry>
        </mxCell>
        <mxCell id="D4eZ-Hi1aHxsngLYi5m4-122" value="1" style="edgeLabel;resizable=0;labelBackgroundColor=none;fontSize=20;align=left;verticalAlign=bottom;fontColor=#1A1A1A;rounded=0;" parent="D4eZ-Hi1aHxsngLYi5m4-120" vertex="1">
          <mxGeometry x="1" relative="1" as="geometry">
            <mxPoint x="-4" y="-20" as="offset" />
          </mxGeometry>
        </mxCell>
        <mxCell id="D4eZ-Hi1aHxsngLYi5m4-123" value="" style="curved=1;startArrow=none;endArrow=open;endSize=12;exitX=1.002;exitY=0.997;entryX=1;entryY=0;rounded=0;labelBackgroundColor=none;fontColor=default;strokeColor=#182E3E;entryDx=0;entryDy=0;exitDx=0;exitDy=0;exitPerimeter=0;fontSize=20;" parent="WIyWlLk6GJQsqaUBKTNV-1" source="D4eZ-Hi1aHxsngLYi5m4-81" target="D4eZ-Hi1aHxsngLYi5m4-28" edge="1">
          <mxGeometry relative="1" as="geometry">
            <Array as="points">
              <mxPoint x="1457" y="928" />
              <mxPoint x="1453" y="976" />
            </Array>
          </mxGeometry>
        </mxCell>
        <mxCell id="D4eZ-Hi1aHxsngLYi5m4-124" value="1" style="edgeLabel;resizable=0;labelBackgroundColor=none;fontSize=20;align=right;verticalAlign=top;fontColor=#1A1A1A;rounded=0;" parent="D4eZ-Hi1aHxsngLYi5m4-123" vertex="1">
          <mxGeometry x="-1" relative="1" as="geometry" />
        </mxCell>
        <mxCell id="D4eZ-Hi1aHxsngLYi5m4-125" value="*" style="edgeLabel;resizable=0;labelBackgroundColor=none;fontSize=20;align=left;verticalAlign=bottom;fontColor=#1A1A1A;rounded=0;" parent="D4eZ-Hi1aHxsngLYi5m4-123" vertex="1">
          <mxGeometry x="1" relative="1" as="geometry">
            <mxPoint x="-3" y="-11" as="offset" />
          </mxGeometry>
        </mxCell>
        <mxCell id="D4eZ-Hi1aHxsngLYi5m4-126" value="" style="curved=1;startArrow=none;endArrow=open;endSize=12;exitX=0.01;exitY=1;entryX=0.5;entryY=0;rounded=0;labelBackgroundColor=none;fontColor=default;strokeColor=#182E3E;fontSize=20;" parent="WIyWlLk6GJQsqaUBKTNV-1" source="D4eZ-Hi1aHxsngLYi5m4-9" target="D4eZ-Hi1aHxsngLYi5m4-82" edge="1">
          <mxGeometry relative="1" as="geometry">
            <Array as="points">
              <mxPoint x="1068" y="574" />
            </Array>
          </mxGeometry>
        </mxCell>
        <mxCell id="D4eZ-Hi1aHxsngLYi5m4-127" value="1" style="edgeLabel;resizable=0;labelBackgroundColor=none;fontSize=20;align=right;verticalAlign=top;fontColor=#1A1A1A;rounded=0;" parent="D4eZ-Hi1aHxsngLYi5m4-126" vertex="1">
          <mxGeometry x="-1" relative="1" as="geometry">
            <mxPoint x="8" y="1" as="offset" />
          </mxGeometry>
        </mxCell>
        <mxCell id="D4eZ-Hi1aHxsngLYi5m4-128" value="*" style="edgeLabel;resizable=0;labelBackgroundColor=none;fontSize=20;align=left;verticalAlign=bottom;fontColor=#1A1A1A;rounded=0;" parent="D4eZ-Hi1aHxsngLYi5m4-126" vertex="1">
          <mxGeometry x="1" relative="1" as="geometry">
            <mxPoint x="3" y="-14" as="offset" />
          </mxGeometry>
        </mxCell>
        <mxCell id="D4eZ-Hi1aHxsngLYi5m4-89" value="" style="curved=1;startArrow=block;startSize=16;startFill=0;endArrow=none;exitX=0;exitY=0.5;rounded=0;entryX=0.5;entryY=0;entryDx=0;entryDy=0;exitDx=0;exitDy=0;labelBackgroundColor=none;fontColor=default;strokeColor=#182E3E;fontSize=20;" parent="WIyWlLk6GJQsqaUBKTNV-1" source="D4eZ-Hi1aHxsngLYi5m4-3" target="D4eZ-Hi1aHxsngLYi5m4-17" edge="1">
          <mxGeometry relative="1" as="geometry">
            <Array as="points">
              <mxPoint x="446" y="-232" />
              <mxPoint x="360" y="61" />
            </Array>
            <mxPoint x="666" y="-424.9599999999999" as="sourcePoint" />
            <mxPoint x="336" y="49" as="targetPoint" />
          </mxGeometry>
        </mxCell>
      </root>
    </mxGraphModel>
  </diagram>
</mxfile>
